<mxfile host="app.diagrams.net" modified="2023-08-30T07:22:34.603Z" agent="Mozilla/5.0 (Windows NT 10.0; Win64; x64) AppleWebKit/537.36 (KHTML, like Gecko) Chrome/116.0.0.0 Safari/537.36 Edg/116.0.1938.62" version="21.7.0" etag="_tNKFVwqBPPyb99bhXrw" type="github">
  <diagram name="第 1 页" id="s2snfImjlksssQ3lNaat">
    <mxGraphModel>
      <root>
        <mxCell id="0" />
        <mxCell id="1" parent="0" />
      </root>
    </mxGraphModel>
  </diagram>
</mxfile>
